<svg width="27.047mm" height="27.047mm" version="1.1" viewBox="0 0 27.047 27.047" xmlns="http://www.w3.org/2000/svg">
 <g transform="translate(-66.106 -74.54)" stroke-width=".26458">
  <g stroke-width=".26458">
   <path d="m66.106 87.538q0.49608-0.0155 0.73895-0.2377 0.24804-0.22737 0.24804-0.58393 0-0.18603-0.12402-0.73378-0.11885-0.54775-0.11885-0.97665 0-1.0697 0.59943-1.6019 0.6046-0.53742 1.819-0.55809h0.13435v0.39273h-0.07751q-0.74928 0-1.173 0.39273-0.42373 0.38756-0.42373 1.2815 0 0.36172 0.10335 0.89397 0.10335 0.53225 0.10335 0.75962 0 0.43924-0.25837 0.72345-0.25837 0.27904-0.61493 0.4134v0.09301q0.35656 0.13435 0.61493 0.41857 0.25837 0.27904 0.25837 0.71828 0 0.22737-0.10335 0.75962-0.10335 0.53225-0.10335 0.89397 0 0.94048 0.42373 1.328 0.42373 0.39273 1.173 0.39273h0.07751v0.39273h-0.13435q-1.2144-0.02067-1.819-0.55809-0.59943-0.53225-0.59943-1.6484 0-0.4289 0.11885-0.97665 0.12402-0.54775 0.12402-0.73378 0-0.35656-0.24804-0.57876-0.24287-0.22737-0.73895-0.24287z"/>
   <path d="m73.821 90.334v-0.25321q0.25837-0.05168 0.38239-0.11368 0.12919-0.06201 0.1912-0.17053 0.06201-0.11368 0.06201-0.29971 0-0.17569-0.04134-0.37723-0.04134-0.2067-0.11885-0.45991l-0.1912-0.6666h-2.408l-0.1757 0.50641q-0.13435 0.38239-0.17569 0.57876t-0.04134 0.35656q0 0.31005 0.15502 0.45474 0.16019 0.14469 0.48574 0.1912v0.25321h-2.2065v-0.25321q0.28938-0.04651 0.50125-0.33589 0.21703-0.28938 0.41857-0.8268l2.1548-5.7204h0.81646l1.7569 5.7617q0.12402 0.40306 0.21703 0.61493 0.09818 0.21187 0.23254 0.33072 0.13436 0.11885 0.36689 0.17569v0.25321zm-1.9843-2.7904h2.16l-0.98182-3.333z"/>
   <path d="m77.898 89.135q0.07234 0.36172 0.07234 0.71311 0 0.36172-0.12402 0.66144-0.12402 0.29971-0.3979 0.59426-0.26871 0.29971-0.74412 0.65627l-0.27904-0.31522q0.26354-0.24804 0.38239-0.44957 0.11885-0.19636 0.17053-0.44957 0.05167-0.25321 0.05167-0.6356 0-0.39273-0.03617-0.77512z"/>
   <path d="m79.097 90.334v-0.25321q0.32038-0.08268 0.4289-0.18086 0.10852-0.10335 0.13952-0.28938 0.03617-0.18603 0.03617-0.56842v-4.4699q0-0.35656-0.02584-0.51675-0.02584-0.16536-0.08785-0.25321-0.05684-0.09301-0.15502-0.14469-0.09818-0.05684-0.33589-0.12402v-0.25321h2.8266q0.82163 0 1.3177 0.17569 0.50124 0.1757 0.74412 0.52192 0.24287 0.34105 0.24287 0.88364 0 0.44957-0.1757 0.78029-0.17053 0.33072-0.44957 0.54775-0.27904 0.21704-0.71828 0.40306v0.04651q0.70278 0.21187 1.0645 0.65627 0.36172 0.43924 0.36172 1.049 0 0.70278-0.31522 1.1472-0.31005 0.4444-0.8733 0.64594-0.56326 0.19636-1.3642 0.19636zm2.4752-3.8911q0.78546 0 1.1989-0.37723 0.41857-0.38239 0.41857-1.1058 0-0.35656-0.11885-0.58909-0.11368-0.2377-0.32038-0.37723-0.20153-0.13952-0.48058-0.19636-0.27904-0.06201-0.6046-0.06201-0.19636 0-0.51675 0.01033t-0.48058 0.02067v2.6768zm-0.90431 3.4002q0.37723 0.03617 0.8423 0.03617 0.67694 0 1.049-0.17053 0.37723-0.17053 0.54259-0.50125 0.17053-0.33589 0.17053-0.83713 0-0.50124-0.18603-0.8268-0.18086-0.32555-0.56326-0.48574-0.38239-0.16019-1.0542-0.16019h-0.80096z"/>
   <path d="m88.548 87.967q-0.49608 0.0155-0.74412 0.24287-0.24287 0.2222-0.24287 0.57876 0 0.18603 0.11885 0.73378 0.12402 0.54775 0.12402 0.97665 0 1.111-0.6046 1.6433-0.59943 0.53742-1.8138 0.55809h-0.13435v-0.39273h0.07751q0.74928 0 1.173-0.39273 0.42373-0.38756 0.42373-1.3229 0-0.36172-0.10335-0.89397-0.10335-0.53225-0.10335-0.75962 0-0.43924 0.25837-0.71828 0.25837-0.28421 0.61493-0.41857v-0.09301q-0.35656-0.13436-0.61493-0.4134-0.25837-0.28421-0.25837-0.72345 0-0.22737 0.10335-0.75962 0.10335-0.53225 0.10335-0.89397 0-0.89914-0.42373-1.2867-0.42373-0.39273-1.173-0.39273h-0.07751v-0.39273h0.13435q1.2144 0.02067 1.8138 0.55809 0.6046 0.53225 0.6046 1.6071 0 0.4289-0.12402 0.97665-0.11885 0.54775-0.11885 0.73378 0 0.35656 0.24287 0.58392 0.24804 0.2222 0.74412 0.2377z"/>
   <path d="m93.152 85.58-0.33589 0.57359-1.328-0.93531 0.14986 1.6174h-0.68211l0.15502-1.6174-1.3332 0.93531-0.34105-0.57359 1.4779-0.69244-1.4779-0.68728 0.34105-0.57876 1.3332 0.93531-0.15502-1.6174h0.68211l-0.14986 1.6174 1.328-0.93531 0.33589 0.57876-1.4727 0.68728z"/>
  </g>
 </g>
</svg>
