<svg height="512pt" viewBox="0 -20 512.00038 512"
    xmlns="http://www.w3.org/2000/svg">
    <path style="fill:#11c111" d="m298.738281 172.007812c-2.628906 0-5.207031 1.070313-7.070312 2.929688-1.859375 1.863281-2.929688 4.441406-2.929688 7.070312 0 2.632813 1.070313 5.210938 2.929688 7.070313 1.863281 1.859375 4.441406 2.929687 7.070312 2.929687 2.632813 0 5.210938-1.066406 7.070313-2.929687 1.859375-1.859375 2.933594-4.4375 2.933594-7.070313 0-2.628906-1.070313-5.210937-2.933594-7.070312-1.859375-1.859375-4.4375-2.929688-7.070313-2.929688zm0 0"/>
    <path style="fill:#11c111" d="m338.742188 172.007812c-2.628907 0-5.210938 1.070313-7.070313 2.929688-1.859375 1.863281-2.929687 4.441406-2.929687 7.070312 0 2.632813 1.066406 5.210938 2.929687 7.070313 1.859375 1.859375 4.441406 2.929687 7.070313 2.929687 2.628906 0 5.210937-1.066406 7.070312-2.929687 1.859375-1.859375 2.929688-4.4375 2.929688-7.070313 0-2.628906-1.070313-5.210937-2.929688-7.070312s-4.441406-2.929688-7.070312-2.929688zm0 0"/>
    <path d="m458.332031 172.007812h-66.671875c-5.519531 0-10 4.480469-10 10 0 5.523438 4.480469 10 10 10h66.671875c5.519531 0 10-4.476562 10-10 0-5.519531-4.476562-10-10-10zm0 0"/>
    <path d="m458.332031 300.015625h-66.671875c-5.519531 0-10 4.476563-10 10s4.480469 10 10 10h66.671875c5.519531 0 10-4.476563 10-10s-4.476562-10-10-10zm0 0"/>
    <path d="m512 78.003906v-48.003906c0-16.542969-13.457031-30-30-30h-208.011719c-16.542969 0-30 13.457031-30 30v48.003906c0 15.871094 12.386719 28.894532 28 29.925782v20.152343c-15.613281 1.03125-28 14.054688-28 29.925781v12.214844c-17.910156-10.539062-37.742187-17.515625-58.753906-20.546875-33.644531-4.855469-68.65625 1.140625-98.59375 16.871094-4.890625 2.570313-6.769531 8.613281-4.199219 13.503906 2.570313 4.890625 8.613282 6.769531 13.503906 4.203125 55.320313-29.078125 122.214844-18.890625 166.453126 25.347656 55.367187 55.367188 55.367187 145.460938 0 200.828126-55.367188 55.367187-145.460938 55.367187-200.828126 0-44.457031-44.457032-54.519531-111.589844-25.035156-167.046876 2.589844-4.878906.738282-10.933593-4.136718-13.523437-4.878907-2.59375-10.933594-.742187-13.523438 4.136719-15.941406 29.980468-22.082031 65.105468-17.285156 98.898437 4.960937 34.949219 20.808594 66.652344 45.835937 91.679688 31.582031 31.582031 73.070313 47.371093 114.558594 47.371093 41.484375 0 82.972656-15.789062 114.554687-47.371093 17.664063-17.664063 30.386719-38.429688 38.171876-60.554688h167.289062c16.542969 0 30-13.460937 30-30.003906v-48c0-15.871094-12.386719-28.894531-28-29.929687v-20.148438c15.613281-1.03125 28-14.058594 28-29.925781v-48.003907c0-15.871093-12.386719-28.894531-28-29.925781v-20.152343c15.613281-1.03125 28-14.054688 28-29.925782zm-48.003906 50.003906h-172.007813v-20.003906h172.007813zm-200.007813-50.003906v-48.003906c0-5.511719 4.484375-10 10-10h208.011719c5.511719 0 10 4.488281 10 10v48.003906c0 5.515625-4.488281 10-10 10h-208.011719c-5.515625 0-10-4.488281-10-10zm50.722657 178.007813c-2.398438-6.8125-5.269532-13.496094-8.605469-20h157.890625v20zm177.289062 30.003906v48c0 5.515625-4.488281 10-10 10h-161.671875c4.773437-22.394531 4.773437-45.609375 0-68.003906h161.671875c5.511719 0 10 4.488281 10 10.003906zm0-128.007813v48.003907c0 5.511719-4.488281 10-10 10h-188.066406c-5.140625-7.207031-10.929688-14.089844-17.394532-20.554688-4.015624-4.015625-8.203124-7.789062-12.550781-11.328125v-26.121094c0-5.515624 4.484375-10 10-10h208.011719c5.511719 0 10 4.484376 10 10zm0 0"/>
    <path style="fill:#11c111" d="m298.738281 64.003906c2.632813 0 5.210938-1.070312 7.070313-2.933594 1.859375-1.855468 2.933594-4.4375 2.933594-7.066406 0-2.640625-1.070313-5.210937-2.933594-7.070312-1.859375-1.859375-4.4375-2.929688-7.070313-2.929688-2.628906 0-5.207031 1.066406-7.070312 2.929688-1.859375 1.859375-2.929688 4.4375-2.929688 7.070312 0 2.628906 1.070313 5.210938 2.929688 7.066406 1.863281 1.863282 4.441406 2.933594 7.070312 2.933594zm0 0"/>
    <path style="fill:#11c111" d="m338.742188 64.003906c2.628906 0 5.210937-1.070312 7.070312-2.933594 1.859375-1.855468 2.929688-4.4375 2.929688-7.066406 0-2.640625-1.070313-5.210937-2.929688-7.070312s-4.441406-2.929688-7.070312-2.929688c-2.628907 0-5.210938 1.066406-7.070313 2.929688-1.859375 1.859375-2.929687 4.4375-2.929687 7.070312 0 2.628906 1.066406 5.210938 2.929687 7.066406 1.859375 1.863282 4.441406 2.933594 7.070313 2.933594zm0 0"/>
    <path d="m391.660156 64.003906h66.671875c5.519531 0 10-4.480468 10-10 0-5.523437-4.480469-10-10-10h-66.671875c-5.519531 0-10 4.476563-10 10 0 5.519532 4.480469 10 10 10zm0 0"/>
    <path style="fill:#11c111" d="m250.101562 310.015625c0 5.523437 4.476563 10 10 10 5.523438 0 10-4.476563 10-10 0-59.617187-48.5-108.117187-108.117187-108.117187s-108.121094 48.5-108.121094 108.117187c0 5.523437 4.480469 10 10.003907 10 5.519531 0 10-4.476563 10-10 0-48.589844 39.527343-88.117187 88.117187-88.117187 20.699219 0 39.75 7.175781 54.804687 19.167968l-38.601562 38.601563c-13.011719-6.9375-29.574219-4.933594-40.53125 6.019531-13.414062 13.414062-13.414062 35.242188 0 48.652344 6.707031 6.707031 15.519531 10.0625 24.328125 10.0625s17.617187-3.355469 24.324219-10.0625c10.957031-10.953125 12.960937-27.515625 6.019531-40.527344l38.605469-38.601562c11.988281 15.054687 19.167968 34.105468 19.167968 54.804687zm-77.933593 10.183594c-5.617188 5.613281-14.75 5.613281-20.367188 0-5.617187-5.617188-5.617187-14.753907 0-20.367188 2.808594-2.808593 6.496094-4.210937 10.183594-4.210937s7.375 1.402344 10.183594 4.210937c5.613281 5.613281 5.613281 14.75 0 20.367188zm0 0"/>
    <path style="fill:#11c111" d="m117.074219 387.984375c-5.519531 0-10 4.476563-10 10s4.480469 10 10 10h89.816406c5.523437 0 10-4.476563 10-10s-4.476563-10-10-10zm0 0"/>
    <path d="m54.496094 212.53125c2.632812 0 5.210937-1.070312 7.074218-2.933594 1.859376-1.859375 2.929688-4.4375 2.929688-7.070312 0-2.628906-1.070312-5.207032-2.929688-7.066406-1.863281-1.859376-4.441406-2.933594-7.074218-2.933594-2.628906 0-5.207032 1.070312-7.066406 2.933594-1.859376 1.859374-2.933594 4.4375-2.933594 7.066406 0 2.632812 1.070312 5.210937 2.933594 7.070312 1.859374 1.863282 4.4375 2.933594 7.066406 2.933594zm0 0"/>
</svg>
