<svg height="512pt" viewBox="0 0 512 512"
    xmlns="http://www.w3.org/2000/svg">
    <g fill-rule="evenodd">
        <path d="m502 204.320312h-35.066406c-5.246094-21.515624-13.714844-41.941406-25.253906-60.914062l24.8125-24.8125c3.90625-3.90625 3.90625-10.238281 0-14.140625l-58.941407-58.945313c-3.90625-3.90625-10.238281-3.90625-14.144531 0l-24.8125 24.8125c-18.972656-11.542968-39.402344-20.011718-60.914062-25.257812v-35.0625c0-5.523438-4.476563-10-10-10h-83.359376c-5.523437 0-10 4.476562-10 10v35.0625c-21.511718 5.246094-41.941406 13.714844-60.914062 25.257812l-24.8125-24.8125c-3.90625-3.90625-10.234375-3.90625-14.140625 0l-58.945313 58.945313c-3.90625 3.902344-3.90625 10.234375 0 14.140625l24.808594 24.808594c-11.539062 18.964844-20.003906 39.394531-25.253906 60.917968h-35.0625c-5.523438 0-10 4.476563-10 10v83.359376c0 5.523437 4.476562 10 10 10h35.066406c5.246094 21.511718 13.714844 41.9375 25.253906 60.914062l-24.8125 24.808594c-1.875 1.875-2.929687 4.421875-2.929687 7.074218 0 2.652344 1.054687 5.195313 2.929687 7.070313l58.945313 58.941406c3.902344 3.90625 10.234375 3.90625 14.140625 0l24.8125-24.808593c18.972656 11.542968 39.398438 20.011718 60.914062 25.257812v35.0625c0 5.523438 4.476563 10 10 10h83.359376c5.519531 0 10-4.476562 10-10v-35.0625c21.511718-5.246094 41.941406-13.714844 60.914062-25.257812l24.8125 24.8125c3.902344 3.902343 10.234375 3.902343 14.140625 0l58.945313-58.945313c3.902343-3.90625 3.902343-10.238281 0-14.140625l-24.808594-24.808594c11.535156-18.96875 20.003906-39.398437 25.25-60.917968h35.066406c5.523438 0 10-4.476563 10-10v-83.359376c0-5.523437-4.476562-10-10-10zm-10 83.359376h-33.070312c-4.75 0-8.847657 3.34375-9.796876 8-5.03125 24.625-14.628906 47.777343-28.523437 68.816406-2.621094 3.964844-2.089844 9.222656 1.269531 12.582031l23.398438 23.398437-44.800782 44.800782-23.402343-23.398438c-3.359375-3.359375-8.617188-3.890625-12.582031-1.273437-21.046876 13.902343-44.199219 23.5-68.8125 28.527343-4.65625.953126-8 5.046876-8 9.796876v33.070312h-63.359376v-33.066406c0-4.753906-3.34375-8.847656-8-9.796875-24.617187-5.03125-47.769531-14.628907-68.8125-28.53125-3.964843-2.621094-9.222656-2.085938-12.582031 1.273437l-23.402343 23.398438-44.800782-44.800782 23.398438-23.402343c3.359375-3.359375 3.894531-8.617188 1.277344-12.582031-13.902344-21.046876-23.5-44.195313-28.527344-68.8125-.949219-4.65625-5.046875-8-9.796875-8h-33.074219v-63.359376h33.070312c4.75 0 8.847657-3.34375 9.796876-8 5.03125-24.628906 14.628906-47.78125 28.523437-68.8125 2.621094-3.964843 2.089844-9.226562-1.273437-12.585937l-23.398438-23.398437 44.804688-44.800782 23.402343 23.398438c3.359375 3.363281 8.617188 3.894531 12.582031 1.273437 21.046876-13.902343 44.199219-23.5 68.8125-28.527343 4.65625-.953126 8-5.046876 8-9.796876v-33.070312h63.359376v33.066406c0 4.753906 3.34375 8.847656 7.996093 9.796875 24.617188 5.03125 47.769531 14.628907 68.8125 28.53125 3.964844 2.617188 9.226563 2.085938 12.585938-1.273437l23.402343-23.402344 44.800782 44.804688-23.402344 23.402343c-3.359375 3.359375-3.894531 8.617188-1.273438 12.582031 13.898438 21.042969 23.496094 44.195313 28.523438 68.8125.953125 4.65625 5.046875 8 9.800781 8h33.074219zm0 0"/>
        <path style="fill:#11c111" d="m161.863281 256c0-51.90625 42.230469-94.136719 94.136719-94.136719 12.238281 0 24.148438 2.320313 35.398438 6.890625 5.113281 2.078125 10.949218-.386718 13.027343-5.5 2.078125-5.117187-.382812-10.953125-5.5-13.03125-13.652343-5.546875-28.09375-8.359375-42.925781-8.359375-62.933594 0-114.136719 51.203125-114.136719 114.136719 0 14.21875 2.589844 28.105469 7.699219 41.269531 1.539062 3.960938 5.320312 6.386719 9.324219 6.386719 1.203125 0 2.425781-.21875 3.617187-.679688 5.148438-2 7.703125-7.792968 5.703125-12.941406-4.207031-10.851562-6.34375-22.300781-6.34375-34.035156zm0 0"/>
        <path style="fill:#11c111" d="m347.410156 205.101562c-5.058594 2.214844-7.363281 8.113282-5.144531 13.171876 5.222656 11.921874 7.867187 24.613281 7.867187 37.726562 0 51.90625-42.226562 94.136719-94.132812 94.136719-13.628906 0-26.773438-2.851563-39.070312-8.46875-5.023438-2.296875-10.953126-.082031-13.25 4.941406-2.296876 5.023437-.082032 10.953125 4.9375 13.25 14.925781 6.820313 30.867187 10.277344 47.378906 10.277344 62.9375 0 114.136718-51.203125 114.136718-114.136719 0-15.890625-3.214843-31.285156-9.550781-45.75-2.214843-5.0625-8.113281-7.363281-13.171875-5.148438zm0 0"/>
        <path style="fill:#11c111" d="m180.261719 317.46875c-5.507813 0-10 4.492188-10 10s4.492187 10 10 10c5.507812 0 10-4.492188 10-10s-4.492188-10-10-10zm0 0"/>
        <path style="fill:#11c111" d="m328.640625 191.382812c5.507813 0 10-4.492187 10-10 0-5.507812-4.492187-10-10-10s-10 4.492188-10 10c0 5.507813 4.492187 10 10 10zm0 0"/>
    </g>
</svg>