<?xml version="1.0" encoding="UTF-8" standalone="no"?>
<svg
   xmlns:dc="http://purl.org/dc/elements/1.1/"
   xmlns:cc="http://creativecommons.org/ns#"
   xmlns:rdf="http://www.w3.org/1999/02/22-rdf-syntax-ns#"
   xmlns:svg="http://www.w3.org/2000/svg"
   xmlns="http://www.w3.org/2000/svg"
   viewBox="0 0 1866.6667 1306.6667"
   height="1306.6667"
   width="1866.6667"
   xml:space="preserve"
   id="svg2"
   version="1.1"><metadata
     id="metadata8"><rdf:RDF><cc:Work
         rdf:about=""><dc:format>image/svg+xml</dc:format><dc:type
           rdf:resource="http://purl.org/dc/dcmitype/StillImage" /></cc:Work></rdf:RDF></metadata><defs
     id="defs6"><clipPath
       id="clipPath14"
       clipPathUnits="userSpaceOnUse"><path
         id="path12"
         d="M 0,0 H 14400 V 14400 H 0 Z" /></clipPath><clipPath
       id="clipPath22"
       clipPathUnits="userSpaceOnUse"><path
         id="path20"
         d="M 7917.219,6750.136 H 6471.508 v 968.398 h 1445.711 z" /></clipPath><linearGradient
       id="linearGradient40"
       spreadMethod="pad"
       gradientTransform="matrix(-3.05e-5,757.70435,757.70435,3.05e-5,7194.3638,6897.8115)"
       gradientUnits="userSpaceOnUse"
       y2="0"
       x2="1"
       y1="0"
       x1="0"><stop
         id="stop28"
         offset="0"
         style="stop-opacity:1;stop-color:#e0d47d" /><stop
         id="stop30"
         offset="0.00549316"
         style="stop-opacity:1;stop-color:#e0d47d" /><stop
         id="stop32"
         offset="0.192307"
         style="stop-opacity:1;stop-color:#e0ad7d" /><stop
         id="stop34"
         offset="0.642853"
         style="stop-opacity:1;stop-color:#e07596" /><stop
         id="stop36"
         offset="0.78817909"
         style="stop-opacity:1;stop-color:#e07596" /><stop
         id="stop38"
         offset="1"
         style="stop-opacity:1;stop-color:#864a89" /></linearGradient><clipPath
       id="clipPath50"
       clipPathUnits="userSpaceOnUse"><path
         id="path48"
         d="M 0,14400 H 14400 V 0 H 0 Z" /></clipPath><clipPath
       id="clipPath58"
       clipPathUnits="userSpaceOnUse"><path
         id="path56"
         d="m 6406.65,7506.56 h 1104.8 v -1104.8 h -1104.8 z" /></clipPath><clipPath
       id="clipPath74"
       clipPathUnits="userSpaceOnUse"><path
         id="path72"
         d="m 6553.65,7353.56 h 802.79 v -802.8 h -802.79 z" /></clipPath><clipPath
       id="clipPath90"
       clipPathUnits="userSpaceOnUse"><path
         id="path88"
         d="m 6691.65,7221.56 h 534.79 v -534.8 h -534.79 z" /></clipPath><clipPath
       id="clipPath106"
       clipPathUnits="userSpaceOnUse"><path
         id="path104"
         d="m 6821.03,7092.17 h 276.03 v -276.03 h -276.03 z" /></clipPath><clipPath
       id="clipPath122"
       clipPathUnits="userSpaceOnUse"><path
         id="path120"
         d="m 7318,7382.35 h 644.77 V 6778 H 7318 Z" /></clipPath><clipPath
       id="clipPath138"
       clipPathUnits="userSpaceOnUse"><path
         id="path136"
         d="m 6170,7274.35 h 644.77 V 6670 H 6170 Z" /></clipPath><clipPath
       id="clipPath158"
       clipPathUnits="userSpaceOnUse"><path
         id="path156"
         d="M 0,14400 H 14400 V 0 H 0 Z" /></clipPath><clipPath
       id="clipPath166"
       clipPathUnits="userSpaceOnUse"><path
         id="path164"
         d="m 7575.86,7285.97 h 426.27 v -364.82 h -426.27 z" /></clipPath><clipPath
       id="clipPath202"
       clipPathUnits="userSpaceOnUse"><path
         id="path200"
         d="m 6588,6959.92 h 69.12 v -62.99 H 6588 Z" /></clipPath><clipPath
       id="clipPath218"
       clipPathUnits="userSpaceOnUse"><path
         id="path216"
         d="m 6548.33,6964.42 h 29.34 v -50.09 h -29.34 z" /></clipPath><clipPath
       id="clipPath234"
       clipPathUnits="userSpaceOnUse"><path
         id="path232"
         d="m 7586,7066.41 h 130 V 6988 h -130 z" /></clipPath><clipPath
       id="clipPath262"
       clipPathUnits="userSpaceOnUse"><path
         id="path260"
         d="m 6792.28,7031.97 h 19.22 v -57.47 h -19.22 z" /></clipPath><clipPath
       id="clipPath278"
       clipPathUnits="userSpaceOnUse"><path
         id="path276"
         d="m 6669.12,7568.89 h 9 v -9 h -9 z" /></clipPath><clipPath
       id="clipPath294"
       clipPathUnits="userSpaceOnUse"><path
         id="path292"
         d="m 7452.08,7397.9 h 9 v -9 h -9 z" /></clipPath><clipPath
       id="clipPath310"
       clipPathUnits="userSpaceOnUse"><path
         id="path308"
         d="m 7681.57,7531.39 h 9 v -9 h -9 z" /></clipPath><clipPath
       id="clipPath326"
       clipPathUnits="userSpaceOnUse"><path
         id="path324"
         d="m 6558.13,7192.41 h 8.99 v -9 h -8.99 z" /></clipPath><clipPath
       id="clipPath342"
       clipPathUnits="userSpaceOnUse"><path
         id="path340"
         d="m 6487.63,7439.9 h 9 v -9 h -9 z" /></clipPath><clipPath
       id="clipPath358"
       clipPathUnits="userSpaceOnUse"><path
         id="path356"
         d="m 7581.07,7247.9 h 9 v -9 h -9 z" /></clipPath><clipPath
       id="clipPath374"
       clipPathUnits="userSpaceOnUse"><path
         id="path372"
         d="m 7497.08,7622.89 h 9 v -9 h -9 z" /></clipPath></defs><g
     clip-path="url(#clipPath14)"
     transform="matrix(1.3333333,0,0,-1.3333333,-8667.3333,10252.667)"
     id="g10"><g
       id="g16"><g
         clip-path="url(#clipPath22)"
         id="g18"><g
           id="g24"><g
             id="g26"><path
               id="path42"
               style="fill:url(#linearGradient40);stroke:none"
               d="M 7917.219,6750.136 H 6471.508 v 968.398 h 1445.711 z" /></g></g></g></g><g
       id="g44"><g
         clip-path="url(#clipPath50)"
         id="g46"><g
           id="g52"><g
             id="g54" /><g
             id="g66"><g
               style="opacity:0.05999762"
               id="g64"
               clip-path="url(#clipPath58)"><g
                 id="g62"
                 transform="translate(7511.4443,6955.1689)"><path
                   id="path60"
                   style="fill:#fcf059;fill-opacity:1;fill-rule:nonzero;stroke:none"
                   d="m 0,0 c -0.56,305.081 -248.333,551.946 -553.414,551.386 -305.08,-0.56 -551.944,-248.333 -551.384,-553.413 0.56,-305.077 248.331,-551.943 553.411,-551.383 C -246.305,-552.851 0.56,-305.076 0,0" /></g></g></g></g><g
           id="g68"><g
             id="g70" /><g
             id="g82"><g
               style="opacity:0.10000598"
               id="g80"
               clip-path="url(#clipPath74)"><g
                 id="g78"
                 transform="translate(7356.4434,6952.1572)"><path
                   id="path76"
                   style="fill:#fcf059;fill-opacity:1;fill-rule:nonzero;stroke:none"
                   d="m 0,0 c 0,221.685 -179.711,401.398 -401.399,401.398 -221.686,0 -401.399,-179.713 -401.399,-401.398 0,-221.685 179.713,-401.397 401.399,-401.397 C -179.711,-401.397 0,-221.685 0,0" /></g></g></g></g><g
           id="g84"><g
             id="g86" /><g
             id="g98"><g
               style="opacity:0.08999628"
               id="g96"
               clip-path="url(#clipPath90)"><g
                 id="g94"
                 transform="translate(7226.4443,6954.1572)"><path
                   id="path92"
                   style="fill:#fcf059;fill-opacity:1;fill-rule:nonzero;stroke:none"
                   d="M 0,0 C 0,147.68 -119.72,267.398 -267.4,267.398 -415.08,267.398 -534.799,147.68 -534.799,0 c 0,-147.68 119.719,-267.398 267.399,-267.398 C -119.72,-267.398 0,-147.68 0,0" /></g></g></g></g><g
           id="g100"><g
             id="g102" /><g
             id="g114"><g
               style="opacity:0.10000598"
               id="g112"
               clip-path="url(#clipPath106)"><g
                 id="g110"
                 transform="translate(7097.0591,6954.1572)"><path
                   id="path108"
                   style="fill:#fcf059;fill-opacity:1;fill-rule:nonzero;stroke:none"
                   d="m 0,0 c 0,76.223 -61.791,138.014 -138.014,138.014 -76.222,0 -138.013,-61.791 -138.013,-138.014 0,-76.223 61.791,-138.014 138.013,-138.014 C -61.791,-138.014 0,-76.223 0,0" /></g></g></g></g><g
           id="g116"><g
             id="g118" /><g
             id="g130"><g
               style="opacity:0.10000598"
               id="g128"
               clip-path="url(#clipPath122)"><g
                 id="g126"
                 transform="translate(7571.2207,6975.0742)"><path
                   id="path124"
                   style="fill:#ffffff;fill-opacity:1;fill-rule:nonzero;stroke:none"
                   d="m 0,0 391.55,2.005 -1.922,375.351 -59.285,-7.283 c 0.604,2.443 0.911,5.002 0.875,7.635 -0.23,16.558 -13.837,29.793 -30.395,29.563 -10.499,-0.146 -19.655,-5.674 -24.896,-13.918 -6.529,4.251 -14.325,6.71 -22.698,6.667 -22.794,-0.117 -41.178,-18.689 -41.061,-41.484 0.048,-9.38 3.227,-18.009 8.533,-24.914 -16.055,-0.786 -28.722,-14.154 -28.497,-30.352 0.012,-0.834 0.067,-1.657 0.144,-2.471 -17.88,-3.734 -32.94,-15.026 -41.746,-30.353 -6.088,15.334 -21.084,26.145 -38.577,26.055 -22.795,-0.116 -41.178,-18.689 -41.062,-41.483 0.046,-8.859 2.889,-17.044 7.673,-23.744 -0.526,0.021 -1.052,0.029 -1.583,0.021 -14.819,-0.206 -26.968,-11.131 -29.194,-25.292 -7.694,3.221 -16.154,4.967 -25.026,4.868 -34.825,-0.392 -62.739,-28.939 -62.349,-63.763 0.205,-18.367 8.248,-34.806 20.91,-46.191 -7.577,-5.538 -12.45,-14.532 -12.31,-24.63 0.003,-0.21 0.018,-0.418 0.024,-0.627 -8.889,4.618 -19.007,7.188 -29.724,7.067 -16.427,-0.184 -31.312,-6.637 -42.418,-17.054 -5.945,0.819 -12.015,1.253 -18.187,1.253 -72.901,0 -132,-59.099 -132,-132 0,-72.902 59.099,-132 132,-132 72.902,0 132,59.098 132,132 0,20.888 -4.859,40.638 -13.498,58.195 C -1.684,-4.652 -0.773,-2.357 0,0" /></g></g></g></g><g
           id="g132"><g
             id="g134" /><g
             id="g146"><g
               style="opacity:0.10000598"
               id="g144"
               clip-path="url(#clipPath138)"><g
                 id="g142"
                 transform="translate(6561.5498,6867.0742)"><path
                   id="path140"
                   style="fill:#ffffff;fill-opacity:1;fill-rule:nonzero;stroke:none"
                   d="m 0,0 -391.55,2.005 1.922,375.351 59.285,-7.283 c -0.604,2.443 -0.911,5.002 -0.875,7.635 0.23,16.558 13.837,29.793 30.395,29.563 10.499,-0.146 19.655,-5.674 24.896,-13.918 6.529,4.251 14.325,6.71 22.698,6.667 22.794,-0.117 41.178,-18.689 41.061,-41.484 -0.048,-9.38 -3.227,-18.009 -8.533,-24.914 16.055,-0.786 28.722,-14.154 28.497,-30.352 -0.012,-0.834 -0.067,-1.657 -0.144,-2.471 17.88,-3.734 32.94,-15.026 41.746,-30.353 6.088,15.334 21.084,26.145 38.577,26.055 22.795,-0.116 41.178,-18.689 41.062,-41.483 -0.046,-8.859 -2.889,-17.044 -7.673,-23.744 0.526,0.021 1.052,0.029 1.583,0.021 14.819,-0.206 26.968,-11.131 29.194,-25.292 7.694,3.221 16.154,4.967 25.026,4.868 34.825,-0.392 62.739,-28.939 62.349,-63.763 -0.205,-18.367 -8.248,-34.806 -20.91,-46.191 7.577,-5.538 12.45,-14.532 12.31,-24.63 -0.003,-0.21 -0.018,-0.418 -0.024,-0.627 8.889,4.618 19.007,7.188 29.724,7.067 16.427,-0.184 31.312,-6.637 42.418,-17.054 5.945,0.819 12.015,1.253 18.187,1.253 72.901,0 132,-59.099 132,-132 0,-72.902 -59.099,-132 -132,-132 -72.902,0 -132,59.098 -132,132 0,20.888 4.859,40.638 13.498,58.195 C 1.684,-4.652 0.773,-2.357 0,0" /></g></g></g></g></g></g><g
       transform="translate(7063.603,6881.9189)"
       id="g148"><path
         id="path150"
         style="fill:#794b7f;fill-opacity:1;fill-rule:nonzero;stroke:none"
         d="m 0,0 79.496,35.999 9,-12 19.499,7.5 20.999,-14.999 41.998,-9 11.999,-23.999 -25.499,-41.998 z" /></g><g
       id="g152"><g
         clip-path="url(#clipPath158)"
         id="g154"><g
           id="g160"><g
             id="g162" /><g
             id="g174"><g
               style="opacity:0.13999903"
               id="g172"
               clip-path="url(#clipPath166)"><g
                 id="g170"
                 transform="translate(7958.582,7138.0039)"><path
                   id="path168"
                   style="fill:#ffffff;fill-opacity:1;fill-rule:nonzero;stroke:none"
                   d="M 0,0 C 24.18,11.926 41.51,36.061 43.384,64.899 46.18,107.887 13.598,145 -29.39,147.795 c -42.988,2.796 -80.102,-29.787 -82.896,-72.774 -1.129,-17.352 3.513,-33.745 12.272,-47.312 -9.857,-4.792 -18.055,-12.555 -23.352,-22.197 -10.688,9.833 -24.673,16.224 -40.294,17.24 -36.309,2.36 -67.656,-25.16 -70.019,-61.469 -0.215,-3.318 -0.175,-6.595 0.092,-9.811 -5.236,3.475 -11.434,5.651 -18.164,6.021 -20.064,1.1 -37.228,-14.215 -38.446,-34.245 -6.887,3.046 -14.418,4.955 -22.371,5.472 -36.309,2.36 -67.657,-25.159 -70.017,-61.468 -2.362,-36.31 25.158,-67.658 61.468,-70.019 25.184,-1.638 47.971,11.108 60.365,31.185 L 21.61,-216.856 Z" /></g></g></g></g><g
           transform="translate(6340.7363,6839.1504)"
           id="g176"><path
             id="path178"
             style="fill:#794b7f;fill-opacity:1;fill-rule:nonzero;stroke:none"
             d="M 0,0 C 0,0 381.033,174.014 603.055,105.007 825.078,36 1152.109,-108.015 1635.158,-147.019 867.082,-147.019 9,-183.019 9,-183.019 Z" /></g><g
           transform="translate(7121,6721)"
           id="g180"><path
             id="path182"
             style="fill:#643e68;fill-opacity:1;fill-rule:nonzero;stroke:none"
             d="M 0,0 C 0,0 -276,220 -812,108 V -34 Z" /></g><g
           transform="translate(6803,6705)"
           id="g184"><path
             id="path186"
             style="fill:#452947;fill-opacity:1;fill-rule:nonzero;stroke:none"
             d="M 0,0 C -2,2 633.126,303.063 1014,292 1496,278 1244,-2 1244,-2 l -70,-2 z" /></g><g
           transform="translate(7487.583,6913.4209)"
           id="g188"><path
             id="path190"
             style="fill:#452947;fill-opacity:1;fill-rule:nonzero;stroke:none"
             d="m 0,0 131.993,100.495 16.499,4.499 47.996,47.998 19.499,-7.499 h 22.499 l 10.5,-19.499 55.497,-14.999 91.496,-68.997 z" /></g><g
           transform="translate(6451.6279,6938.9238)"
           id="g192"><path
             id="path194"
             style="fill:#643e68;fill-opacity:1;fill-rule:nonzero;stroke:none"
             d="m 0,0 107.995,25.499 13.499,-12 14.999,7.5 68.997,-62.997 h 26.998 l 19.499,-19.499 35.998,-14.999 28.499,-23.999 L -12,-124.494 Z" /></g><g
           id="g196"><g
             id="g198" /><g
             id="g210"><g
               style="opacity:0.49000501"
               id="g208"
               clip-path="url(#clipPath202)"><g
                 id="g206"
                 transform="translate(6588.1211,6959.9229)"><path
                   id="path204"
                   style="fill:#fcf059;fill-opacity:1;fill-rule:nonzero;stroke:none"
                   d="m 0,0 8.879,-23.923 -9,-4 69.118,-35.074 z" /></g></g></g></g><g
           id="g212"><g
             id="g214" /><g
             id="g226"><g
               style="opacity:0.49000501"
               id="g224"
               clip-path="url(#clipPath218)"><g
                 id="g222"
                 transform="translate(6559.6226,6964.4229)"><path
                   id="path220"
                   style="fill:#fcf059;fill-opacity:1;fill-rule:nonzero;stroke:none"
                   d="m 0,0 -1.289,-12.756 -10,-3.334 18,-22 -2.667,-12 14,22 -14.667,12 10.122,4.09 z" /></g></g></g></g><g
           id="g228"><g
             id="g230" /><g
             id="g242"><g
               style="opacity:0.49000501"
               id="g240"
               clip-path="url(#clipPath234)"><g
                 id="g238"
                 transform="translate(7684.0713,7066.4131)"><path
                   id="path236"
                   style="fill:#fcf059;fill-opacity:1;fill-rule:nonzero;stroke:none"
                   d="m 0,0 -47.996,-47.998 -16.499,-4.499 -33.576,-25.916 29,16 51,4 -24,6 29,30 27,-3 18,12 -22,-6 -15,7 z" /></g></g></g></g><g
           transform="translate(6792,7034.5)"
           id="g244"><path
             id="path246"
             style="fill:#794b7f;fill-opacity:1;fill-rule:nonzero;stroke:none"
             d="m 0,0 c 0,0 11,-37 20,-43 -12,1 -10,2 -10,2 0,0 7,-21 16,-26 -17,2 -14,2 -14,2 0,0 6,-14 14,-20 -16,-4 -21,1 -21,1 l -35,1 c 0,0 10,14 12,19 h -13 c 0,0 19,21 19,27 -11,-2 -4,2 -4,2 0,0 13,21 16,35" /></g><g
           transform="translate(6828.5122,7021.5537)"
           id="g248"><path
             id="path250"
             style="fill:#794b7f;fill-opacity:1;fill-rule:nonzero;stroke:none"
             d="m 0,0 c 0,0 8.853,-29.778 16.096,-34.607 -9.658,0.804 -8.048,1.609 -8.048,1.609 0,0 5.634,-16.901 12.877,-20.925 -13.682,1.61 -11.267,1.61 -11.267,1.61 0,0 4.828,-11.268 11.267,-16.097 -12.877,-3.219 -16.901,0.805 -16.901,0.805 l -28.169,0.805 c 0,0 8.048,11.267 9.658,15.291 H -24.95 c 0,0 15.292,16.902 15.292,21.731 -8.853,-1.61 -3.219,1.609 -3.219,1.609 0,0 10.462,16.901 12.877,28.169" /></g><g
           transform="translate(6739.478,7011.3447)"
           id="g252"><path
             id="path254"
             style="fill:#794b7f;fill-opacity:1;fill-rule:nonzero;stroke:none"
             d="m 0,0 c 0,0 7.81,-26.269 14.2,-30.529 -8.52,0.71 -7.1,1.42 -7.1,1.42 0,0 4.969,-14.91 11.359,-18.459 -12.069,1.42 -9.939,1.42 -9.939,1.42 0,0 4.259,-9.94 9.939,-14.201 C 7.1,-63.188 3.55,-59.639 3.55,-59.639 l -24.849,0.711 c 0,0 7.099,9.94 8.519,13.49 h -9.229 c 0,0 13.489,14.909 13.489,19.169 -7.81,-1.419 -2.84,1.419 -2.84,1.419 0,0 9.23,14.911 11.36,24.85" /></g><g
           id="g256"><g
             id="g258" /><g
             id="g270"><g
               style="opacity:0.10000598"
               id="g268"
               clip-path="url(#clipPath262)"><g
                 id="g266"
                 transform="translate(6806,6974.5)"><path
                   id="path264"
                   style="fill:#fcf059;fill-opacity:1;fill-rule:nonzero;stroke:none"
                   d="M 0,0 3.019,2.516 C -0.915,9.074 -3.662,16.6 -4.336,18.525 -3.633,18.141 -1.346,17.57 5.5,17 -2.072,22.048 -11.059,49.036 -13.72,57.473 -13.25,49.75 -11.25,37.25 -3.75,22 c -6,0 -6.583,0.166 -6.583,0.166 z" /></g></g></g></g><g
           id="g272"><g
             id="g274" /><g
             id="g286"><g
               style="opacity:0.14999402"
               id="g284"
               clip-path="url(#clipPath278)"><g
                 id="g282"
                 transform="translate(6678.1196,7564.3887)"><path
                   id="path280"
                   style="fill:#ffffff;fill-opacity:1;fill-rule:nonzero;stroke:none"
                   d="M 0,0 C 0,-2.485 -2.015,-4.5 -4.5,-4.5 -6.985,-4.5 -9,-2.485 -9,0 -9,2.485 -6.985,4.5 -4.5,4.5 -2.015,4.5 0,2.485 0,0" /></g></g></g></g><g
           id="g288"><g
             id="g290" /><g
             id="g302"><g
               style="opacity:0.14999402"
               id="g300"
               clip-path="url(#clipPath294)"><g
                 id="g298"
                 transform="translate(7461.0801,7393.3975)"><path
                   id="path296"
                   style="fill:#ffffff;fill-opacity:1;fill-rule:nonzero;stroke:none"
                   d="M 0,0 C 0,-2.485 -2.015,-4.5 -4.5,-4.5 -6.985,-4.5 -9,-2.485 -9,0 -9,2.485 -6.985,4.5 -4.5,4.5 -2.015,4.5 0,2.485 0,0" /></g></g></g></g><g
           id="g304"><g
             id="g306" /><g
             id="g318"><g
               style="opacity:0.14999402"
               id="g316"
               clip-path="url(#clipPath310)"><g
                 id="g314"
                 transform="translate(7690.5684,7526.8901)"><path
                   id="path312"
                   style="fill:#ffffff;fill-opacity:1;fill-rule:nonzero;stroke:none"
                   d="M 0,0 C 0,-2.485 -2.015,-4.5 -4.5,-4.5 -6.985,-4.5 -9,-2.485 -9,0 -9,2.485 -6.985,4.5 -4.5,4.5 -2.015,4.5 0,2.485 0,0" /></g></g></g></g><g
           id="g320"><g
             id="g322" /><g
             id="g334"><g
               style="opacity:0.14999402"
               id="g332"
               clip-path="url(#clipPath326)"><g
                 id="g330"
                 transform="translate(6567.125,7187.9072)"><path
                   id="path328"
                   style="fill:#ffffff;fill-opacity:1;fill-rule:nonzero;stroke:none"
                   d="M 0,0 C 0,-2.485 -2.015,-4.5 -4.5,-4.5 -6.985,-4.5 -9,-2.485 -9,0 -9,2.485 -6.985,4.5 -4.5,4.5 -2.015,4.5 0,2.485 0,0" /></g></g></g></g><g
           id="g336"><g
             id="g338" /><g
             id="g350"><g
               style="opacity:0.14999402"
               id="g348"
               clip-path="url(#clipPath342)"><g
                 id="g346"
                 transform="translate(6496.6284,7435.395)"><path
                   id="path344"
                   style="fill:#ffffff;fill-opacity:1;fill-rule:nonzero;stroke:none"
                   d="M 0,0 C 0,-2.485 -2.015,-4.5 -4.5,-4.5 -6.985,-4.5 -9,-2.485 -9,0 -9,2.485 -6.985,4.5 -4.5,4.5 -2.015,4.5 0,2.485 0,0" /></g></g></g></g><g
           id="g352"><g
             id="g354" /><g
             id="g366"><g
               style="opacity:0.14999402"
               id="g364"
               clip-path="url(#clipPath358)"><g
                 id="g362"
                 transform="translate(7590.0742,7243.4043)"><path
                   id="path360"
                   style="fill:#ffffff;fill-opacity:1;fill-rule:nonzero;stroke:none"
                   d="M 0,0 C 0,-2.485 -2.015,-4.5 -4.5,-4.5 -6.985,-4.5 -9,-2.485 -9,0 -9,2.485 -6.985,4.5 -4.5,4.5 -2.015,4.5 0,2.485 0,0" /></g></g></g></g><g
           id="g368"><g
             id="g370" /><g
             id="g382"><g
               style="opacity:0.14999402"
               id="g380"
               clip-path="url(#clipPath374)"><g
                 id="g378"
                 transform="translate(7506.0781,7618.3857)"><path
                   id="path376"
                   style="fill:#ffffff;fill-opacity:1;fill-rule:nonzero;stroke:none"
                   d="M 0,0 C 0,-2.485 -2.015,-4.5 -4.5,-4.5 -6.985,-4.5 -9,-2.485 -9,0 -9,2.485 -6.985,4.5 -4.5,4.5 -2.015,4.5 0,2.485 0,0" /></g></g></g></g></g></g></g></svg>