<?xml version="1.0" encoding="iso-8859-1"?>
<svg version="1.1" id="Capa_1" xmlns="http://www.w3.org/2000/svg" xmlns:xlink="http://www.w3.org/1999/xlink" x="0px" y="0px"
	 viewBox="0 0 511 511" style="enable-background:new 0 0 511 511;" xml:space="preserve">
<g>
	<path d="M471.5,432c-8.185,0-15.796,2.504-22.11,6.784L316.741,306.135C328.14,292.373,335,274.723,335,255.5
		s-6.86-36.873-18.259-50.635l91.506-91.506C419.06,121.89,432.69,127,447.5,127c35.014,0,63.5-28.486,63.5-63.5S482.514,0,447.5,0
		S384,28.486,384,63.5c0,14.81,5.11,28.44,13.641,39.253l-91.506,91.506C292.373,182.86,274.723,176,255.5,176
		s-36.873,6.86-50.635,18.259l-60.649-60.649c4.28-6.313,6.784-13.924,6.784-22.11c0-21.78-17.72-39.5-39.5-39.5S72,89.72,72,111.5
		S89.72,151,111.5,151c8.185,0,15.796-2.504,22.11-6.784l60.649,60.649C182.86,218.627,176,236.277,176,255.5
		c0,9.235,1.6,18.099,4.508,26.352l-93.579,43.19C78.391,312.36,63.904,304,47.5,304C21.309,304,0,325.309,0,351.5
		S21.309,399,47.5,399S95,377.691,95,351.5c0-4.45-0.629-8.754-1.778-12.842l93.595-43.198
		c13.749,23.54,39.232,39.421,68.379,39.532l5.325,58.572C244.067,398.334,232,413.53,232,431.5c0,21.78,17.72,39.5,39.5,39.5
		s39.5-17.72,39.5-39.5c0-20.444-15.613-37.309-35.542-39.301l-5.324-58.572c13.502-2.524,25.819-8.452,36.001-16.886
		L438.784,449.39c-4.28,6.313-6.784,13.924-6.784,22.11c0,21.78,17.72,39.5,39.5,39.5s39.5-17.72,39.5-39.5S493.28,432,471.5,432z
		 M47.5,384C29.58,384,15,369.42,15,351.5S29.58,319,47.5,319c12.877,0,24.029,7.529,29.286,18.415
		c0.061,0.16,0.12,0.321,0.193,0.479c0.04,0.087,0.094,0.162,0.137,0.247C78.963,342.22,80,346.74,80,351.5
		C80,369.42,65.42,384,47.5,384z M447.5,15c26.743,0,48.5,21.757,48.5,48.5S474.243,112,447.5,112S399,90.243,399,63.5
		S420.757,15,447.5,15z M87,111.5C87,97.991,97.991,87,111.5,87S136,97.991,136,111.5S125.009,136,111.5,136S87,125.009,87,111.5z
		 M191,255.5c0-35.565,28.935-64.5,64.5-64.5s64.5,28.935,64.5,64.5S291.065,320,255.5,320S191,291.065,191,255.5z M296,431.5
		c0,13.509-10.991,24.5-24.5,24.5S247,445.009,247,431.5s10.991-24.5,24.5-24.5S296,417.991,296,431.5z M471.5,496
		c-13.509,0-24.5-10.991-24.5-24.5s10.991-24.5,24.5-24.5s24.5,10.991,24.5,24.5S485.009,496,471.5,496z"/>
	<path style="fill:#11c111" d="M288,255.5c0,4.142,3.358,7.5,7.5,7.5s7.5-3.358,7.5-7.5c0-26.191-21.309-47.5-47.5-47.5c-4.142,0-7.5,3.358-7.5,7.5
		s3.358,7.5,7.5,7.5C273.42,223,288,237.58,288,255.5z"/>
	<path style="fill:#11c111" d="M447.5,47c9.098,0,16.5,7.402,16.5,16.5c0,4.142,3.358,7.5,7.5,7.5s7.5-3.358,7.5-7.5c0-17.369-14.131-31.5-31.5-31.5
		c-4.142,0-7.5,3.358-7.5,7.5S443.358,47,447.5,47z"/>
	<path style="fill:#11c111" d="M47.5,336c-4.142,0-7.5,3.358-7.5,7.5s3.358,7.5,7.5,7.5c0.276,0,0.5,0.224,0.5,0.5c0,4.142,3.358,7.5,7.5,7.5
		s7.5-3.358,7.5-7.5C63,342.953,56.047,336,47.5,336z"/>
</g>
</svg>
