<?xml version="1.0" ?><svg data-name="Material Expand" id="Material_Expand" viewBox="0 0 64 64" xmlns="http://www.w3.org/2000/svg"><rect height="4" width="4" x="2" y="35"/><rect height="4" width="4" x="7" y="2"/><rect height="4" width="4" x="7" y="58"/><rect height="4" width="4" x="58" y="35"/><path d="M53,26H48V24a2,2,0,0,0-2-2H45V21A13.01,13.01,0,0,0,34,8.17V2H30V8.17A13.01,13.01,0,0,0,19,21v1H18a2,2,0,0,0-2,2v2H11V10H7V28a2,2,0,0,0,2,2h7v5H10v4h6v5H9a2,2,0,0,0-2,2v8h4V48h5v4a2,2,0,0,0,2,2H30v8h4V54H46a2,2,0,0,0,2-2V48h5v6h4V46a2,2,0,0,0-2-2H48V39h6V35H48V30h7a2,2,0,0,0,2-2V10H53ZM23,21a9,9,0,0,1,18,0v1H23ZM44,50H20V26H44Z"/><rect height="4" width="4" x="53" y="2"/><rect height="4" width="4" x="53" y="58"/><path d="M31.257,45.856a1.989,1.989,0,0,0,1.486,0A9.9,9.9,0,0,0,39,36.615V32a2,2,0,0,0-2-2H27a2,2,0,0,0-2,2v4.615A9.9,9.9,0,0,0,31.257,45.856ZM29,34h6v2.615a5.923,5.923,0,0,1-3,5.171,5.923,5.923,0,0,1-3-5.171Z"/></svg>