<?xml version="1.0" encoding="iso-8859-1"?>
<svg version="1.1" id="Capa_1" xmlns="http://www.w3.org/2000/svg" xmlns:xlink="http://www.w3.org/1999/xlink" x="0px" y="0px"
	 viewBox="0 0 512 512" style="enable-background:new 0 0 512 512;" xml:space="preserve">
<g>
	<g>
		<path style="fill:#242730" d="M91.522,56.263h-0.121c-18.519,0.271-33.581,15.565-33.581,34.093v48.72H7.536c-4.162,0-7.536,3.374-7.536,7.536
			s3.374,7.536,7.536,7.536h50.285v39.622H7.536c-4.162,0-7.536,3.374-7.536,7.536s3.374,7.536,7.536,7.536h50.285v39.621H7.536
			C3.374,248.464,0,251.838,0,256s3.374,7.536,7.536,7.536h50.285v39.621H7.536c-4.162,0-7.536,3.374-7.536,7.536
			s3.374,7.536,7.536,7.536h50.285v39.622H7.536c-4.162,0-7.536,3.374-7.536,7.536s3.374,7.536,7.536,7.536h50.285v25.77
			c0,4.16,3.376,7.536,7.536,7.536s7.536-3.376,7.536-7.536V90.357c0-10.34,8.4-18.87,18.74-19.031
			c4.16-0.06,7.486-3.477,7.416-7.647C98.988,59.559,95.632,56.263,91.522,56.263z"/>
	</g>
</g>
<g>
	<g>
		<path style="fill:#242730" d="M410.168,437.549H91.924c-7.767,0-14.68-4.642-17.624-11.827c-1.578-3.858-5.969-5.697-9.827-4.12
			c-3.859,1.578-5.697,5.979-4.12,9.827c5.265,12.872,17.655,21.191,31.571,21.191h47.153v51.842c0,4.162,3.374,7.536,7.536,7.536
			s7.536-3.374,7.536-7.536v-51.842h39.622v51.842c0,4.162,3.374,7.536,7.536,7.536s7.536-3.374,7.536-7.536v-51.842h39.621v51.842
			c0,4.162,3.374,7.536,7.536,7.536s7.536-3.374,7.536-7.536v-51.842h39.621v51.842c0,4.162,3.374,7.536,7.536,7.536
			s7.536-3.374,7.536-7.536v-51.842h39.622v51.842c0,4.162,3.374,7.536,7.536,7.536s7.536-3.374,7.536-7.536v-51.842h37.245
			c4.16,0,7.536-3.376,7.536-7.536C417.704,440.916,414.328,437.549,410.168,437.549z"/>
	</g>
</g>
<g>
	<g>
		<path style="fill:#11c111" d="M358.209,128.138H153.791c-13.284,0-24.085,10.802-24.085,24.085v204.429c0,13.284,10.802,24.085,24.085,24.085h204.419
			c13.284,0,24.085-10.802,24.085-24.085V152.223C382.295,138.939,371.493,128.138,358.209,128.138z M144.777,152.223
			c0-4.974,4.039-9.013,9.013-9.013h155.885v78.707c-13.624,2.944-24.386,13.706-27.329,27.331H226.81v-38.645
			c14.238-2.783,25.01-15.354,25.01-30.396c0-17.072-13.897-30.968-30.978-30.968c-15.042,0-27.611,10.771-30.396,24.999h-45.669
			V152.223z M317.213,236.185c11.354,0,20.589,9.244,20.589,20.599s-9.234,20.589-20.589,20.589
			c-11.436,0-20.599-9.325-20.599-20.589C296.615,245.499,305.803,236.185,317.213,236.185z M220.842,196.113
			c-8.715,0-15.906-7.088-15.906-15.906c0-8.762,7.134-15.896,15.906-15.896c8.772,0,15.906,7.134,15.906,15.896
			C236.748,189.055,229.544,196.113,220.842,196.113z M188.296,319.283c-4.371-2.452-7.325-7.144-7.325-12.5
			c0-7.908,6.441-14.339,14.349-14.339c7.908,0,14.339,6.431,14.339,14.339C209.658,317.741,197.806,324.659,188.296,319.283z
			 M249.246,365.665h-50.56v-29.662c14.64-1.668,26.045-14.138,26.045-29.22c0-16.218-13.193-29.411-29.411-29.411
			c-16.228,0-29.421,13.193-29.421,29.411c0,12.058,7.295,22.458,17.715,26.989v31.893h-29.823c-4.974,0-9.013-4.049-9.013-9.013
			V189.31h46.452c0.064,0.104,4.114,15.471,20.508,20.509v46.965c0,4.16,3.376,7.536,7.536,7.536h29.972V365.665z M367.223,356.652
			c0,4.964-4.039,9.013-9.013,9.013h-93.892v-32.59h102.905V356.652z M367.223,318.003H264.318V264.32h18.028
			c3.467,16.057,17.785,28.125,34.867,28.125c19.664,0,35.661-15.997,35.661-35.661c0-17.082-12.068-31.4-28.125-34.867
			c0,0-0.001,0-0.002,0V143.21h33.462c4.974,0,9.013,4.039,9.013,9.013V318.003z"/>
	</g>
</g>
<g>
	<g>
		<path style="fill:#242730" d="M504.464,208.843c4.162,0,7.536-3.374,7.536-7.536s-3.374-7.536-7.536-7.536h-50.285v-39.622h50.285
			c4.162,0,7.536-3.374,7.536-7.536s-3.374-7.536-7.536-7.536h-50.285v-48.72c0-18.8-15.293-34.103-34.103-34.103h-47.153V7.536
			c0-4.162-3.374-7.536-7.536-7.536s-7.536,3.374-7.536,7.536v48.717h-39.622V7.536c0-4.162-3.374-7.536-7.536-7.536
			s-7.536,3.374-7.536,7.536v48.717h-39.621V7.536C263.536,3.374,260.162,0,256,0s-7.536,3.374-7.536,7.536v48.717h-39.621V7.536
			c0-4.162-3.374-7.536-7.536-7.536s-7.536,3.374-7.536,7.536v48.717h-39.622V7.536c0-4.162-3.374-7.536-7.536-7.536
			s-7.536,3.374-7.536,7.536v48.717h-17.41c-4.17,0-7.536,3.376-7.536,7.536s3.366,7.536,7.536,7.536c39.477,0,266.815,0,298.409,0
			c10.5,0,19.031,8.541,19.031,19.031v328.162c0,5.255-2.09,10.149-5.898,13.776c-3.014,2.874-3.135,7.647-0.261,10.651
			c1.487,1.557,3.467,2.341,5.456,2.341c1.869,0,3.738-0.693,5.205-2.08c6.813-6.501,10.571-15.273,10.571-24.688v-45.595h50.285
			c4.162,0,7.536-3.374,7.536-7.536s-3.374-7.536-7.536-7.536h-50.285v-39.622h50.285c4.162,0,7.536-3.374,7.536-7.536
			s-3.374-7.536-7.536-7.536h-50.285v-39.621h50.285c4.162,0,7.536-3.374,7.536-7.536s-3.374-7.536-7.536-7.536h-50.285v-39.621
			H504.464z"/>
	</g>
</g>
</svg>
